<svg width="287" height="81" viewBox="0 0 287 81" fill="none" xmlns="http://www.w3.org/2000/svg">
<rect width="203" height="81" fill="#09161E"/>
<path d="M28.6866 48.24C27.5986 48.24 26.6466 48.04 25.8306 47.64C25.0306 47.224 24.4066 46.632 23.9586 45.864C23.5266 45.08 23.3106 44.168 23.3106 43.128V35.352C23.3106 34.296 23.5266 33.384 23.9586 32.616C24.4066 31.848 25.0306 31.264 25.8306 30.864C26.6466 30.448 27.5986 30.24 28.6866 30.24C29.7746 30.24 30.7186 30.448 31.5186 30.864C32.3186 31.28 32.9346 31.872 33.3666 32.64C33.8146 33.392 34.0386 34.296 34.0386 35.352H31.4466C31.4466 34.44 31.2066 33.744 30.7266 33.264C30.2466 32.784 29.5666 32.544 28.6866 32.544C27.8066 32.544 27.1186 32.784 26.6226 33.264C26.1426 33.744 25.9026 34.432 25.9026 35.328V43.128C25.9026 44.024 26.1426 44.72 26.6226 45.216C27.1186 45.696 27.8066 45.936 28.6866 45.936C29.5666 45.936 30.2466 45.696 30.7266 45.216C31.2066 44.72 31.4466 44.024 31.4466 43.128H34.0386C34.0386 44.168 33.8146 45.072 33.3666 45.84C32.9346 46.608 32.3186 47.2 31.5186 47.616C30.7186 48.032 29.7746 48.24 28.6866 48.24ZM37.8213 48V30.48H40.4133V37.728H45.5493V30.48H48.1413V48H45.5493V40.128H40.4133V48H37.8213ZM52.4279 48V30.48H62.7239V32.784H54.9719V37.752H61.8839V40.032H54.9719V45.696H62.7239V48H52.4279ZM66.5065 48V30.48H69.7705L74.8825 45.048C74.8505 44.584 74.8105 44.032 74.7625 43.392C74.7145 42.752 74.6745 42.088 74.6425 41.4C74.6265 40.712 74.6185 40.088 74.6185 39.528V30.48H77.0185V48H73.7545L68.6665 33.432C68.6985 33.848 68.7305 34.368 68.7625 34.992C68.8105 35.616 68.8425 36.264 68.8585 36.936C68.8905 37.608 68.9065 38.232 68.9065 38.808V48H66.5065ZM94.9277 48V30.48H98.1198L99.8718 36.096C100.048 36.624 100.2 37.136 100.328 37.632C100.456 38.112 100.544 38.472 100.592 38.712C100.656 38.472 100.744 38.112 100.856 37.632C100.984 37.136 101.128 36.624 101.288 36.096L102.968 30.48H106.16V48H103.712V42.096C103.712 41.344 103.728 40.512 103.76 39.6C103.808 38.672 103.872 37.744 103.952 36.816C104.032 35.872 104.112 34.976 104.192 34.128C104.272 33.264 104.344 32.512 104.408 31.872L101.816 40.392H99.3198L96.6798 31.872C96.7598 32.496 96.8398 33.224 96.9198 34.056C96.9998 34.872 97.0718 35.744 97.1358 36.672C97.1998 37.6 97.2558 38.536 97.3038 39.48C97.3518 40.408 97.3758 41.28 97.3758 42.096V48H94.9277ZM114.934 48.24C113.254 48.24 111.958 47.784 111.046 46.872C110.134 45.944 109.678 44.688 109.678 43.104V30.48H112.27V43.104C112.27 43.984 112.486 44.68 112.918 45.192C113.366 45.704 114.038 45.96 114.934 45.96C115.814 45.96 116.478 45.704 116.926 45.192C117.374 44.68 117.598 43.984 117.598 43.104V30.48H120.19V43.104C120.19 44.688 119.734 45.944 118.822 46.872C117.91 47.784 116.614 48.24 114.934 48.24ZM128.029 48V41.544L122.821 30.48H125.509L128.605 37.104C128.813 37.536 128.981 37.944 129.109 38.328C129.237 38.696 129.325 38.984 129.373 39.192C129.405 38.984 129.485 38.696 129.613 38.328C129.757 37.944 129.925 37.536 130.117 37.104L133.141 30.48H135.829L130.621 41.544V48H128.029ZM137.548 48L142.012 30.48H145.42L149.884 48H147.268L146.212 43.56H141.244L140.188 48H137.548ZM141.724 41.424H145.708L144.508 36.36C144.3 35.464 144.124 34.688 143.98 34.032C143.852 33.36 143.764 32.904 143.716 32.664C143.668 32.904 143.58 33.36 143.452 34.032C143.324 34.688 143.148 35.456 142.924 36.336L141.724 41.424ZM152.85 48V30.48H156.114L161.226 45.048C161.194 44.584 161.154 44.032 161.106 43.392C161.058 42.752 161.018 42.088 160.986 41.4C160.97 40.712 160.962 40.088 160.962 39.528V30.48H163.362V48H160.098L155.01 33.432C155.042 33.848 155.074 34.368 155.106 34.992C155.154 35.616 155.186 36.264 155.202 36.936C155.234 37.608 155.25 38.232 155.25 38.808V48H152.85ZM172.593 48.24C171.505 48.24 170.553 48.04 169.737 47.64C168.937 47.224 168.313 46.632 167.865 45.864C167.433 45.08 167.217 44.168 167.217 43.128V35.352C167.217 34.296 167.433 33.384 167.865 32.616C168.313 31.848 168.937 31.264 169.737 30.864C170.553 30.448 171.505 30.24 172.593 30.24C173.681 30.24 174.625 30.448 175.425 30.864C176.225 31.28 176.841 31.872 177.273 32.64C177.721 33.392 177.945 34.296 177.945 35.352H175.353C175.353 34.44 175.113 33.744 174.633 33.264C174.153 32.784 173.473 32.544 172.593 32.544C171.713 32.544 171.025 32.784 170.529 33.264C170.049 33.744 169.809 34.432 169.809 35.328V43.128C169.809 44.024 170.049 44.72 170.529 45.216C171.025 45.712 171.713 45.96 172.593 45.96C173.473 45.96 174.153 45.712 174.633 45.216C175.113 44.72 175.353 44.024 175.353 43.128V41.16H172.089V38.88H177.945V43.128C177.945 44.168 177.721 45.072 177.273 45.84C176.841 46.608 176.225 47.2 175.425 47.616C174.625 48.032 173.681 48.24 172.593 48.24Z" fill="#ECECE9"/>
<g clip-path="url(#clip0_108_2)">
<path d="M284.7 0H208.3C207.69 0 207.105 0.243997 206.674 0.678314C206.242 1.11263 206 1.70169 206 2.31591V78.7003C206.002 79.3131 206.245 79.9001 206.676 80.3327C207.108 80.7652 207.691 81.0081 208.3 81.0081H284.7C285.309 81.0081 285.892 80.7652 286.324 80.3327C286.755 79.9001 286.998 79.3131 287 78.7003V2.31591C287 1.70169 286.758 1.11263 286.326 0.678314C285.895 0.243997 285.31 0 284.7 0ZM239.806 7.3134H256.406C256.613 7.31297 256.815 7.37269 256.989 7.48538C257.163 7.59806 257.301 7.75892 257.386 7.94862C257.471 8.13831 257.5 8.34875 257.47 8.55465C257.439 8.76055 257.35 8.95313 257.213 9.10925C255.042 11.6955 253.189 14.5357 251.693 17.5684C251.09 18.7958 250.551 20.0544 250.079 21.3389C249.99 21.6085 249.848 21.8572 249.661 22.0695C249.473 22.2819 249.245 22.4536 248.99 22.574C248.747 22.6899 248.483 22.7536 248.215 22.7609C247.947 22.7682 247.68 22.7191 247.431 22.6166C247.183 22.5141 246.958 22.3605 246.772 22.1657C246.586 21.9709 246.443 21.7391 246.351 21.4851C245.432 19.0116 244.284 16.6309 242.921 14.3749C242.099 13.0437 241.187 11.7703 240.193 10.5638C239.798 10.0762 239.386 9.59681 238.999 9.14175C238.851 8.98687 238.753 8.79126 238.716 8.57986C238.679 8.36846 238.706 8.15084 238.793 7.95473C238.879 7.75862 239.022 7.5929 239.202 7.47868C239.383 7.36447 239.593 7.30693 239.806 7.3134ZM253.84 73.7028H239.467C239.176 73.7028 239.08 73.4672 239.289 73.264C239.499 73.0609 239.903 72.6627 240.185 72.3702C240.726 71.8176 241.194 71.3219 241.614 70.8181C242.912 69.2096 243.796 67.3032 244.188 65.2681C244.834 60.5225 243.679 52.9897 238.789 59.8886C237.697 61.419 236.485 62.8592 235.165 64.1954C232.857 66.4969 229.912 68.0433 226.716 68.6322C224.384 69.1198 221.721 69.2579 215.571 69.2904C214.963 69.2926 214.378 69.0518 213.945 68.6207C213.513 68.1897 213.267 67.6036 213.263 66.9908V46.562C213.263 46.3365 213.307 46.1133 213.394 45.9052C213.48 45.6971 213.606 45.5082 213.765 45.3496C213.924 45.1909 214.113 45.0655 214.32 44.9807C214.528 44.8959 214.75 44.8534 214.974 44.8555H232.995C234.316 44.881 235.599 44.411 236.595 43.537C237.592 42.663 238.23 41.4474 238.385 40.1262C238.447 39.4097 238.36 38.6882 238.13 38.0074C237.9 37.3265 237.532 36.7012 237.05 36.1711C236.567 35.6409 235.98 35.2174 235.327 34.9275C234.673 34.6375 233.967 34.4875 233.253 34.4868H214.966C214.514 34.4846 214.08 34.3022 213.761 33.9793C213.442 33.6565 213.263 33.2195 213.263 32.764V13.993C213.265 13.3802 213.509 12.7932 213.94 12.3606C214.371 11.9281 214.955 11.6852 215.563 11.6852H216.209C218.63 11.6852 220.938 11.6364 223.125 11.6852C229.129 11.8233 235.367 12.8878 238.143 17.3734C238.563 18.0641 238.95 18.7711 239.322 19.4943C239.774 20.3719 240.177 21.2739 240.556 22.184C240.782 22.7366 241 23.2729 241.21 23.8092C241.614 24.8737 242.017 25.9382 242.324 27.0596C242.832 28.6279 243.3 30.2206 243.736 31.8214C244.269 33.7717 244.753 35.7382 245.213 37.7047C247.15 46.1069 249.095 54.5038 251.048 62.8953C251.762 66.1322 253.011 69.2253 254.744 72.0451C254.844 72.2082 254.899 72.3952 254.904 72.5869C254.909 72.7786 254.863 72.9682 254.771 73.1361C254.679 73.304 254.544 73.4442 254.38 73.5424C254.217 73.6406 254.03 73.6931 253.84 73.6947V73.7028ZM279.745 66.9664C279.744 67.2747 279.682 67.5797 279.562 67.8635C279.443 68.1473 279.268 68.4042 279.049 68.6191C278.829 68.8341 278.569 69.0027 278.284 69.1152C277.999 69.2277 277.695 69.2817 277.388 69.2742C272.635 69.1767 270.125 68.876 267.656 68.0228C263.492 66.62 260.015 63.6739 257.931 59.783C255.623 55.4762 254.703 49.4548 254.703 42.7915C254.703 36.1282 255.72 28.7823 258.545 22.6715C261.369 16.5608 265.985 11.6852 274.112 11.6852H277.445C278.054 11.6852 278.637 11.9281 279.068 12.3606C279.5 12.7932 279.743 13.3802 279.745 13.993V66.9664Z" fill="#0B0B0F"/>
</g>
<defs>
<clipPath id="clip0_108_2">
<rect width="81" height="81" fill="white" transform="translate(206)"/>
</clipPath>
</defs>
</svg>
