<svg width="101" height="100" viewBox="0 0 101 100" fill="none" xmlns="http://www.w3.org/2000/svg">
<g clip-path="url(#clip0_4_6)">
<path d="M97.52 0H2.85C2.09413 0 1.36922 0.300267 0.834746 0.834746C0.300267 1.36922 0 2.09413 0 2.85L0 96.85C0.0026461 97.6041 0.304081 98.3265 0.838273 98.8588C1.37247 99.3911 2.09586 99.69 2.85 99.69H97.52C98.2741 99.69 98.9975 99.3911 99.5317 98.8588C100.066 98.3265 100.367 97.6041 100.37 96.85V2.85C100.37 2.09413 100.07 1.36922 99.5353 0.834746C99.0008 0.300267 98.2759 0 97.52 0ZM41.89 9H62.46C62.7162 8.99947 62.9671 9.07296 63.1826 9.21164C63.398 9.35031 63.5689 9.54827 63.6745 9.78171C63.7801 10.0151 63.8161 10.2741 63.778 10.5275C63.74 10.7809 63.6295 11.0179 63.46 11.21C60.7701 14.3926 58.4736 17.8878 56.62 21.62C55.8723 23.1305 55.2047 24.6793 54.62 26.26C54.5102 26.5919 54.3338 26.8978 54.1017 27.1592C53.8696 27.4205 53.5866 27.6318 53.27 27.78C52.9695 27.9226 52.6425 28.0009 52.31 28.01C51.9775 28.019 51.6468 27.9585 51.339 27.8324C51.0312 27.7062 50.7531 27.5172 50.5226 27.2775C50.292 27.0377 50.114 26.7525 50 26.44C48.8621 23.396 47.4391 20.4663 45.75 17.69C44.7311 16.0517 43.6018 14.4848 42.37 13C41.88 12.4 41.37 11.81 40.89 11.25C40.7072 11.0594 40.5853 10.8187 40.5398 10.5585C40.4943 10.2984 40.5273 10.0306 40.6345 9.78923C40.7418 9.54789 40.9185 9.34395 41.1421 9.2034C41.3656 9.06284 41.626 8.99203 41.89 9ZM59.28 90.7H41.47C41.11 90.7 40.99 90.41 41.25 90.16C41.51 89.91 42.01 89.42 42.36 89.06C43.03 88.38 43.61 87.77 44.13 87.15C45.7392 85.1705 46.8349 82.8245 47.32 80.32C48.12 74.48 46.69 65.21 40.63 73.7C39.2767 75.5833 37.7753 77.3556 36.14 79C33.2791 81.8323 29.63 83.7352 25.67 84.46C22.78 85.06 19.48 85.23 11.86 85.27C11.1059 85.2727 10.3814 84.9763 9.84533 84.4459C9.30926 83.9154 9.00529 83.1941 9 82.44V57.3C8.99999 57.0225 9.05496 56.7478 9.16174 56.4917C9.26853 56.2356 9.425 56.0032 9.62213 55.808C9.81926 55.6127 10.0531 55.4584 10.3102 55.3541C10.5673 55.2497 10.8425 55.1974 11.12 55.2H33.45C35.087 55.2313 36.6772 54.653 37.9117 53.5774C39.1462 52.5019 39.9368 51.0059 40.13 49.38C40.2062 48.4983 40.0984 47.6104 39.8134 46.7726C39.5285 45.9347 39.0726 45.1652 38.4747 44.5127C37.8768 43.8603 37.1499 43.3392 36.34 42.9824C35.5301 42.6256 34.655 42.4409 33.77 42.44H11.11C10.5495 42.4374 10.0128 42.2128 9.61739 41.8155C9.22198 41.4183 8.99999 40.8805 9 40.32V17.22C9.00265 16.4659 9.30408 15.7435 9.83827 15.2112C10.3725 14.6789 11.0959 14.38 11.85 14.38H12.65C15.65 14.38 18.51 14.32 21.22 14.38C28.66 14.55 36.39 15.86 39.83 21.38C40.35 22.23 40.83 23.1 41.29 23.99C41.85 25.07 42.35 26.18 42.82 27.3C43.1 27.98 43.37 28.64 43.63 29.3C44.13 30.61 44.63 31.92 45.01 33.3C45.64 35.23 46.22 37.19 46.76 39.16C47.42 41.56 48.02 43.98 48.59 46.4C50.99 56.74 53.4 67.0733 55.82 77.4C56.7049 81.3835 58.2532 85.1898 60.4 88.66C60.5242 88.8607 60.5928 89.0908 60.5987 89.3267C60.6046 89.5626 60.5477 89.7959 60.4337 90.0025C60.3197 90.2092 60.1527 90.3818 59.95 90.5026C59.7472 90.6234 59.516 90.6881 59.28 90.69V90.7ZM91.38 82.41C91.3788 82.7894 91.3018 83.1647 91.1537 83.514C91.0055 83.8632 90.7891 84.1794 90.5171 84.4439C90.2451 84.7084 89.9231 84.916 89.5698 85.0544C89.2166 85.1928 88.8393 85.2593 88.46 85.25C82.57 85.13 79.46 84.76 76.4 83.71C71.2409 81.9837 66.9325 78.3582 64.35 73.57C61.49 68.27 60.35 60.86 60.35 52.66C60.35 44.46 61.61 35.42 65.11 27.9C68.61 20.38 74.33 14.38 84.4 14.38H88.53C89.2841 14.38 90.0075 14.6789 90.5417 15.2112C91.0759 15.7435 91.3773 16.4659 91.38 17.22V82.41Z" fill="#0B0B0F"/>
</g>
<defs>
<clipPath id="clip0_4_6">
<rect width="100.37" height="99.68" fill="white"/>
</clipPath>
</defs>
</svg>
