<svg width="500" height="1000" viewBox="0 0 500 1000" fill="none" xmlns="http://www.w3.org/2000/svg">
<rect x="1.25" y="1.25" width="497.5" height="997.5" rx="33.75" fill="white"/>
<rect x="1.25" y="1.25" width="497.5" height="997.5" rx="33.75" stroke="#DDDDDD" stroke-width="2.5"/>
<path d="M65.0326 190.815C65.1802 194.335 66.6418 197.665 69.1258 200.164H56.1766C58.6534 197.665 60.1114 194.335 60.2698 190.815C60.421 187.301 59.251 183.849 56.9938 181.145C60.6658 177.451 64.561 177.433 68.233 181.077L68.3014 181.145C66.0478 183.849 64.8814 187.301 65.0326 190.815Z" fill="#04052B"/>
<path d="M69.1258 200.164C66.6418 197.665 65.1802 194.335 65.0326 190.815C64.8814 187.301 66.0478 183.849 68.3014 181.145L68.233 181.077C64.561 177.433 60.6658 177.451 56.9938 181.145C59.251 183.849 60.421 187.301 60.2698 190.815C60.1114 194.335 58.6534 197.665 56.1766 200.164H69.1258ZM69.1258 200.164H69.1294" stroke="#057245" stroke-linecap="round" stroke-linejoin="round"/>
<path d="M61.8667 136.528C58.9515 136.739 56.254 138.092 54.3423 140.304L54.3413 140.305C52.4303 142.513 51.4797 145.379 51.6899 148.295C51.9002 151.21 53.2538 153.908 55.4653 155.819L55.4663 155.82C57.6744 157.731 60.5402 158.682 63.4565 158.472C66.3718 158.261 69.0693 156.908 70.981 154.696L70.9819 154.695C72.8929 152.487 73.8436 149.621 73.6333 146.705C73.4231 143.79 72.0695 141.092 69.8579 139.181L69.8569 139.18C67.6488 137.269 64.783 136.318 61.8667 136.528Z" fill="#04052B" stroke="#057245" stroke-width="3"/>
<path d="M47.7046 159.514C44.6515 159.367 41.6815 160.435 39.4224 162.492L39.4214 162.493C37.1628 164.547 35.8189 167.405 35.6753 170.456V170.457C35.5288 173.51 36.5969 176.48 38.6538 178.739L38.6548 178.74C40.7084 180.999 43.5671 182.343 46.6177 182.486H46.6187C49.6717 182.633 52.6418 181.565 54.9009 179.508L54.9019 179.507L55.314 179.112C57.3233 177.095 58.5133 174.404 58.6479 171.544V171.543L58.6616 170.971C58.6573 168.121 57.5977 165.379 55.6694 163.261L55.6685 163.26C53.6148 161.001 50.7561 159.657 47.7056 159.514H47.7046Z" fill="#04052B" stroke="#057245" stroke-width="3"/>
<path d="M78.1733 159.5C77.9574 159.5 77.7992 159.5 77.646 159.51L77.6255 159.512L77.605 159.513C77.4605 159.518 77.3147 159.529 77.147 159.544C75.2444 159.717 73.4321 160.35 71.8657 161.372C70.9337 161.984 70.0847 162.738 69.3403 163.619V163.62C67.3857 165.964 66.4415 168.98 66.7056 172.027L66.7319 172.33C67.0291 174.882 68.157 177.236 69.9409 179.054L69.9937 179.106C70.1328 179.246 70.2309 179.342 70.3237 179.424L70.3687 179.465C70.4804 179.571 70.5962 179.673 70.7231 179.778L70.7505 179.802C70.9508 179.976 71.1336 180.123 71.3188 180.252L71.3286 180.259L71.3394 180.267C71.4884 180.374 71.6251 180.47 71.7573 180.557L71.769 180.564C71.8962 180.649 72.0201 180.729 72.1333 180.796L72.1528 180.808C72.8208 181.215 73.5178 181.554 74.2339 181.812L74.2563 181.82L74.2778 181.829C74.3918 181.874 74.5109 181.912 74.7017 181.973C74.8617 182.022 75.0196 182.067 75.1929 182.114C75.3429 182.155 75.4988 182.192 75.6646 182.229L75.6831 182.232L75.7007 182.236C75.8174 182.265 75.9343 182.289 76.0327 182.305L76.0454 182.307L76.0591 182.309C76.0849 182.313 76.1106 182.318 76.1274 182.321C76.1468 182.325 76.1592 182.326 76.1694 182.328C76.1913 182.332 76.1845 182.33 76.1636 182.328L76.2397 182.335L76.314 182.35C76.4028 182.367 76.4827 182.376 76.6567 182.399L76.6626 182.4C76.8416 182.426 76.9828 182.443 77.1187 182.452L77.145 182.454L77.1714 182.457C77.3103 182.472 77.4602 182.48 77.6333 182.486H77.645L77.6577 182.487C77.9902 182.505 78.3194 182.504 78.6519 182.487L78.6655 182.486H78.6782C78.8395 182.481 79.0071 182.469 79.1802 182.454C79.3775 182.436 79.5553 182.416 79.7202 182.391L79.7485 182.386L79.7759 182.383L79.9634 182.357C80.0151 182.349 80.0584 182.341 80.0981 182.331L80.1899 182.31L80.2827 182.299C80.3203 182.295 80.3699 182.285 80.4302 182.272L80.4526 182.263L80.6138 182.23L80.8765 182.172C80.9621 182.151 81.0464 182.129 81.1294 182.105L81.1421 182.102L81.1548 182.099L81.1851 182.091L81.1997 182.086L81.2417 182.071L81.3022 182.055L81.4907 182.001C81.5501 181.983 81.6064 181.964 81.6597 181.944L81.7046 181.928L81.7505 181.914L81.8247 181.893C81.846 181.886 81.8622 181.882 81.8765 181.878C81.9043 181.87 81.9163 181.865 81.9214 181.863L81.9292 181.86L81.938 181.857L82.2563 181.74C82.3252 181.714 82.3918 181.687 82.4575 181.66L82.4878 181.64L82.6401 181.58L82.9097 181.466C83.0023 181.423 83.0983 181.375 83.1997 181.323L83.2173 181.314L83.2339 181.307L83.5474 181.148C84.2733 180.769 84.9561 180.308 85.5854 179.768L85.5923 179.761L85.6001 179.755L85.8589 179.529C85.9443 179.452 86.0323 179.371 86.1245 179.285C86.2302 179.183 86.3301 179.083 86.4282 178.982L86.6216 178.775C86.6955 178.696 86.7768 178.604 86.8706 178.497L86.9028 178.459L86.939 178.424C86.9207 178.442 86.9116 178.453 86.9321 178.429C86.9375 178.422 86.9575 178.401 86.9722 178.384C86.9802 178.375 86.9898 178.364 87.0005 178.352L87.0366 178.295L87.1011 178.219C87.2108 178.09 87.3198 177.943 87.4644 177.747L87.4673 177.742L87.6929 177.425L87.9087 177.092L87.9116 177.087C88.0409 176.881 88.1571 176.683 88.2622 176.483L88.27 176.468L88.2788 176.453L88.4097 176.206C88.4519 176.122 88.4934 176.036 88.5347 175.946L88.5483 175.917L88.563 175.888C88.6509 175.717 88.7298 175.536 88.8149 175.318L88.8237 175.294L88.8345 175.271C88.8789 175.168 88.9191 175.062 88.9546 174.953L88.9634 174.926L88.9731 174.898L89.0952 174.545L89.1157 174.474L89.1343 174.426L89.1411 174.396L89.1626 174.331L89.269 173.969L89.271 173.961L89.3823 173.493L89.3862 173.476L89.3911 173.457C89.4307 173.289 89.4613 173.146 89.4829 173.014C89.5099 172.842 89.534 172.674 89.561 172.488H89.5601C89.6529 171.824 89.6816 171.158 89.647 170.504V170.489L89.646 170.476C89.6407 170.32 89.6308 170.159 89.6167 169.993C89.6121 169.959 89.6065 169.924 89.6021 169.891L89.6001 169.875L89.5981 169.858C89.5858 169.747 89.5718 169.614 89.5601 169.477L89.5591 169.478C89.559 169.476 89.5579 169.467 89.5532 169.433C89.5513 169.419 89.5492 169.394 89.5454 169.365C89.5115 169.158 89.4923 169.029 89.4644 168.895L89.4585 168.861C89.3841 168.456 89.2919 168.068 89.1772 167.71L89.1646 167.672L89.1548 167.632C89.1372 167.565 89.1106 167.488 89.064 167.36L89.0522 167.328L89.0425 167.296C88.932 166.945 88.7934 166.597 88.6323 166.245L88.6235 166.226L88.6157 166.206C88.5755 166.111 88.5346 166.026 88.4946 165.954L88.4448 165.863L88.438 165.854L88.3853 165.735C88.3692 165.699 88.3428 165.648 88.2729 165.523L88.2563 165.493L88.2407 165.463C88.196 165.373 88.1521 165.295 88.1099 165.229L88.0923 165.202L88.0767 165.176C87.9874 165.022 87.8912 164.865 87.7915 164.709C87.7732 164.683 87.7527 164.651 87.731 164.614C87.6472 164.493 87.5579 164.367 87.4663 164.24L87.4614 164.233L87.4556 164.227C87.351 164.078 87.2519 163.946 87.1489 163.823L87.1323 163.804L87.1167 163.783C87.0106 163.648 86.8942 163.512 86.7661 163.369L86.7651 163.368C86.6501 163.24 86.5509 163.129 86.4546 163.027L86.4438 163.016L86.4331 163.003C86.4019 162.968 86.3765 162.943 86.3569 162.926L86.3081 162.883L86.2642 162.836C86.1953 162.763 86.1179 162.69 85.9946 162.573C85.6899 162.289 85.3632 162.02 85.019 161.765L85.0083 161.757C84.8607 161.645 84.8034 161.613 84.5698 161.444L84.5708 161.443C84.5634 161.439 84.5542 161.433 84.5444 161.427C84.3532 161.304 84.1817 161.196 84.0093 161.098L84.0005 161.092L83.9917 161.087C83.8038 160.976 83.6346 160.881 83.4653 160.795L83.4663 160.794C83.445 160.784 83.4252 160.775 83.4097 160.768C83.3986 160.762 83.3878 160.756 83.3794 160.752C83.3703 160.747 83.3632 160.743 83.3569 160.74C83.3375 160.73 83.3356 160.729 83.3433 160.732L83.2876 160.711L83.2212 160.676C83.1162 160.62 83.0001 160.565 82.855 160.5C82.8474 160.497 82.839 160.495 82.8306 160.492L82.7671 160.47L82.7065 160.441C82.5345 160.361 82.3669 160.291 82.2036 160.234L82.1841 160.228L82.1655 160.221C81.9727 160.148 81.7741 160.079 81.5825 160.02C81.3906 159.96 81.1893 159.906 80.9829 159.856L80.9106 159.839L80.8569 159.819C80.8551 159.819 80.8526 159.82 80.8501 159.819L80.8052 159.811L80.7603 159.801C80.5781 159.757 80.3974 159.719 80.2056 159.684L80.2065 159.683C80.0179 159.649 79.8592 159.624 79.7026 159.606L79.6567 159.602L79.6118 159.594C79.6033 159.592 79.5963 159.591 79.5903 159.59H79.5347L79.4341 159.575C79.3228 159.56 79.2171 159.549 79.1147 159.542L79.105 159.546L78.9321 159.531L78.7192 159.525L78.689 159.515C78.5288 159.505 78.3572 159.5 78.1733 159.5ZM86.5913 178.812C86.5905 178.812 86.5901 178.814 86.5894 178.814C86.6025 178.8 86.6139 178.787 86.6235 178.776C86.6145 178.786 86.6034 178.798 86.5913 178.812ZM84.5923 161.46L84.5903 161.458C84.5876 161.456 84.5843 161.453 84.5796 161.45C84.5855 161.454 84.5896 161.458 84.5923 161.46ZM79.5757 159.587H79.5737C79.5674 159.586 79.5639 159.586 79.563 159.586C79.5641 159.586 79.5685 159.586 79.5757 159.587Z" fill="#04052B" stroke="#057245" stroke-width="3"/>
<path d="M67 119V106.2H40.6V94.92L61.88 60.6H70.04L47.8 96.52V99.64H67V85.4H74.2V119H67Z" fill="#010004"/>
<path d="M442.033 809.185C442.18 805.665 443.642 802.335 446.126 799.836H433.177C435.653 802.335 437.111 805.665 437.27 809.185C437.421 812.699 436.251 816.151 433.994 818.855C437.666 822.549 441.561 822.567 445.233 818.923L445.301 818.855C443.048 816.151 441.881 812.699 442.033 809.185Z" fill="#04052B"/>
<path d="M446.126 799.836C443.642 802.335 442.18 805.665 442.033 809.185C441.881 812.699 443.048 816.151 445.301 818.855L445.233 818.923C441.561 822.567 437.666 822.549 433.994 818.855C436.251 816.151 437.421 812.699 437.27 809.185C437.111 805.665 435.653 802.335 433.177 799.836H446.126ZM446.126 799.836H446.129" stroke="#057245" stroke-linecap="round" stroke-linejoin="round"/>
<path d="M438.867 863.472C435.951 863.261 433.254 861.908 431.342 859.696L431.341 859.695C429.43 857.487 428.48 854.621 428.69 851.705C428.9 848.79 430.254 846.092 432.465 844.181L432.466 844.18C434.674 842.269 437.54 841.318 440.457 841.528C443.372 841.739 446.069 843.092 447.981 845.304L447.982 845.305C449.893 847.513 450.844 850.379 450.633 853.295C450.423 856.21 449.069 858.908 446.858 860.819L446.857 860.82C444.649 862.731 441.783 863.682 438.867 863.472Z" fill="#04052B" stroke="#057245" stroke-width="3"/>
<path d="M424.705 840.486C421.652 840.633 418.681 839.565 416.422 837.508L416.421 837.507C414.163 835.453 412.819 832.595 412.675 829.544V829.543C412.529 826.49 413.597 823.52 415.654 821.261L415.655 821.26C417.708 819.001 420.567 817.657 423.618 817.514H423.619C426.672 817.367 429.642 818.435 431.901 820.492L431.902 820.493L432.314 820.888C434.323 822.905 435.513 825.596 435.648 828.456V828.457L435.662 829.029C435.657 831.879 434.598 834.621 432.669 836.739L432.668 836.74C430.615 838.999 427.756 840.343 424.706 840.486H424.705Z" fill="#04052B" stroke="#057245" stroke-width="3"/>
<path d="M455.173 840.5C454.957 840.5 454.799 840.5 454.646 840.49L454.625 840.488L454.605 840.487C454.461 840.482 454.315 840.471 454.147 840.456C452.244 840.283 450.432 839.65 448.866 838.628C447.934 838.016 447.085 837.262 446.34 836.381V836.38C444.386 834.036 443.442 831.02 443.706 827.973L443.732 827.67C444.029 825.118 445.157 822.764 446.941 820.946L446.994 820.894C447.133 820.754 447.231 820.658 447.324 820.576L447.369 820.535C447.48 820.429 447.596 820.327 447.723 820.222L447.75 820.198C447.951 820.024 448.134 819.877 448.319 819.748L448.329 819.741L448.339 819.733C448.488 819.626 448.625 819.53 448.757 819.443L448.769 819.436C448.896 819.351 449.02 819.271 449.133 819.204L449.153 819.192C449.821 818.785 450.518 818.446 451.234 818.188L451.256 818.18L451.278 818.171C451.392 818.126 451.511 818.088 451.702 818.027C451.862 817.978 452.02 817.933 452.193 817.886C452.343 817.845 452.499 817.808 452.665 817.771L452.683 817.768L452.701 817.764C452.817 817.735 452.934 817.711 453.033 817.695L453.045 817.693L453.059 817.691C453.085 817.687 453.111 817.682 453.127 817.679C453.147 817.675 453.159 817.674 453.169 817.672C453.191 817.668 453.185 817.67 453.164 817.672L453.24 817.665L453.314 817.65C453.403 817.633 453.483 817.624 453.657 817.601L453.663 817.6C453.842 817.574 453.983 817.557 454.119 817.548L454.145 817.546L454.171 817.543C454.31 817.528 454.46 817.52 454.633 817.514H454.645L454.658 817.513C454.99 817.495 455.319 817.496 455.652 817.513L455.666 817.514H455.678C455.839 817.519 456.007 817.531 456.18 817.546C456.378 817.564 456.555 817.584 456.72 817.609L456.749 817.614L456.776 817.617L456.963 817.643C457.015 817.651 457.058 817.659 457.098 817.669L457.19 817.69L457.283 817.701C457.32 817.705 457.37 817.715 457.43 817.728L457.453 817.737L457.614 817.77L457.876 817.828C457.962 817.849 458.046 817.871 458.129 817.895L458.142 817.898L458.155 817.901L458.185 817.909L458.2 817.914L458.242 817.929L458.302 817.945L458.491 817.999C458.55 818.017 458.606 818.036 458.66 818.056L458.705 818.072L458.75 818.086L458.825 818.107C458.846 818.114 458.862 818.118 458.876 818.122C458.904 818.13 458.916 818.135 458.921 818.137L458.929 818.14L458.938 818.143L459.256 818.26C459.325 818.286 459.392 818.313 459.458 818.34L459.488 818.36L459.64 818.42L459.91 818.534C460.002 818.577 460.098 818.625 460.2 818.677L460.217 818.686L460.234 818.693L460.547 818.852C461.273 819.231 461.956 819.692 462.585 820.232L462.592 820.239L462.6 820.245L462.859 820.471C462.944 820.548 463.032 820.629 463.125 820.715C463.23 820.817 463.33 820.917 463.428 821.018L463.622 821.225C463.696 821.304 463.777 821.396 463.871 821.503L463.903 821.541L463.939 821.576C463.921 821.558 463.912 821.547 463.932 821.571C463.938 821.578 463.957 821.599 463.972 821.616C463.98 821.625 463.99 821.636 464 821.648L464.037 821.705L464.101 821.781C464.211 821.91 464.32 822.057 464.464 822.253L464.467 822.258L464.693 822.575L464.909 822.908L464.912 822.913C465.041 823.119 465.157 823.317 465.262 823.517L465.27 823.532L465.279 823.547L465.41 823.794C465.452 823.878 465.493 823.964 465.535 824.054L465.548 824.083L465.563 824.112C465.651 824.283 465.73 824.464 465.815 824.682L465.824 824.706L465.834 824.729C465.879 824.832 465.919 824.938 465.955 825.047L465.963 825.074L465.973 825.102L466.095 825.455L466.116 825.526L466.134 825.574L466.141 825.604L466.163 825.669L466.269 826.031L466.271 826.039L466.382 826.507L466.386 826.524L466.391 826.543C466.431 826.711 466.461 826.854 466.483 826.986C466.51 827.158 466.534 827.326 466.561 827.512H466.56C466.653 828.176 466.682 828.842 466.647 829.496V829.511L466.646 829.524C466.641 829.68 466.631 829.841 466.617 830.007C466.612 830.041 466.606 830.076 466.602 830.109L466.6 830.125L466.598 830.142C466.586 830.253 466.572 830.386 466.56 830.523L466.559 830.522C466.559 830.524 466.558 830.533 466.553 830.567C466.551 830.581 466.549 830.606 466.545 830.635C466.511 830.842 466.492 830.971 466.464 831.105L466.458 831.139C466.384 831.544 466.292 831.932 466.177 832.29L466.165 832.328L466.155 832.368C466.137 832.435 466.111 832.512 466.064 832.64L466.052 832.672L466.042 832.704C465.932 833.055 465.793 833.403 465.632 833.755L465.624 833.774L465.616 833.794C465.575 833.889 465.535 833.974 465.495 834.046L465.445 834.137L465.438 834.146L465.385 834.265C465.369 834.301 465.343 834.352 465.273 834.477L465.256 834.507L465.241 834.537C465.196 834.627 465.152 834.705 465.11 834.771L465.092 834.798L465.077 834.824C464.987 834.978 464.891 835.135 464.792 835.291C464.773 835.317 464.753 835.349 464.731 835.386C464.647 835.507 464.558 835.633 464.466 835.76L464.461 835.767L464.456 835.773C464.351 835.922 464.252 836.054 464.149 836.177L464.132 836.196L464.117 836.217C464.011 836.352 463.894 836.488 463.766 836.631L463.765 836.632C463.65 836.76 463.551 836.871 463.455 836.973L463.444 836.984L463.433 836.997C463.402 837.032 463.376 837.057 463.357 837.074L463.308 837.117L463.264 837.164C463.195 837.237 463.118 837.31 462.995 837.427C462.69 837.711 462.363 837.98 462.019 838.235L462.008 838.243C461.861 838.355 461.803 838.387 461.57 838.556L461.571 838.557C461.563 838.561 461.554 838.567 461.544 838.573C461.353 838.696 461.182 838.804 461.009 838.902L461 838.908L460.992 838.913C460.804 839.024 460.635 839.119 460.465 839.205L460.466 839.206C460.445 839.216 460.425 839.225 460.41 839.232C460.399 839.238 460.388 839.244 460.379 839.248C460.37 839.253 460.363 839.257 460.357 839.26C460.337 839.27 460.336 839.271 460.343 839.268L460.288 839.289L460.221 839.324C460.116 839.38 460 839.435 459.855 839.5C459.847 839.503 459.839 839.505 459.831 839.508L459.767 839.53L459.707 839.559C459.535 839.639 459.367 839.709 459.204 839.766L459.184 839.772L459.166 839.779C458.973 839.852 458.774 839.921 458.583 839.98C458.391 840.04 458.189 840.094 457.983 840.144L457.911 840.161L457.857 840.181C457.855 840.181 457.853 840.18 457.85 840.181L457.805 840.189L457.76 840.199C457.578 840.243 457.397 840.281 457.206 840.316L457.207 840.317C457.018 840.351 456.859 840.376 456.703 840.394L456.657 840.398L456.612 840.406C456.603 840.408 456.596 840.409 456.59 840.41H456.535L456.434 840.425C456.323 840.44 456.217 840.451 456.115 840.458L456.105 840.454L455.932 840.469L455.719 840.475L455.689 840.485C455.529 840.495 455.357 840.5 455.173 840.5ZM463.591 821.188C463.591 821.188 463.59 821.186 463.589 821.186C463.602 821.2 463.614 821.213 463.624 821.224C463.615 821.214 463.603 821.202 463.591 821.188ZM461.592 838.54L461.59 838.542C461.588 838.544 461.584 838.547 461.58 838.55C461.585 838.546 461.59 838.542 461.592 838.54ZM456.576 840.413H456.574C456.567 840.414 456.564 840.414 456.563 840.414C456.564 840.414 456.569 840.414 456.576 840.413Z" fill="#04052B" stroke="#057245" stroke-width="3"/>
<path d="M433 881V893.8H459.4V905.08L438.12 939.4H429.96L452.2 903.48V900.36H433V914.6H425.8V881H433Z" fill="#010004"/>
<path d="M381.485 464.553C374.179 464.72 367.088 467.053 361.112 471.258C355.136 475.463 350.544 481.349 347.919 488.168C345.295 494.988 344.757 502.434 346.373 509.56C347.989 516.686 351.686 523.172 356.995 528.192C362.304 533.213 368.986 536.543 376.191 537.758C383.397 538.974 390.801 538.021 397.463 535.02C404.126 532.019 409.746 527.105 413.611 520.904C417.475 514.702 419.409 507.492 419.168 500.189C418.743 490.519 414.573 481.393 407.54 474.742C400.508 468.092 391.163 464.438 381.485 464.553Z" fill="black"/>
<path d="M316.772 511.246C323.289 509.331 330.299 510.063 336.28 513.284C342.262 516.504 346.732 521.954 348.72 528.449C350.648 535.021 349.928 542.087 346.712 548.134C343.497 554.181 338.043 558.73 331.517 560.807C324.945 562.763 317.865 562.027 311.835 558.763C305.805 555.498 301.319 549.972 299.364 543.399C297.408 536.827 298.144 529.747 301.408 523.717C304.673 517.687 310.199 513.201 316.772 511.246Z" fill="black"/>
<path d="M316.772 489.536C323.289 491.451 330.299 490.718 336.28 487.498C342.262 484.277 346.732 478.828 348.72 472.332C350.648 465.76 349.928 458.695 346.712 452.648C343.497 446.6 338.043 442.051 331.517 439.974C324.945 438.019 317.865 438.754 311.835 442.019C305.805 445.283 301.319 450.81 299.364 457.382C297.408 463.954 298.144 471.034 301.408 477.064C304.673 483.094 310.199 487.58 316.772 489.536Z" fill="black"/>
<path d="M313.907 500.192C299.608 495.054 287.573 485.049 279.91 471.93V528.864C287.658 515.724 299.648 505.612 313.907 500.192Z" fill="black"/>
<path d="M286.055 632.494C285.97 625.17 283.705 618.037 279.548 612.006C275.391 605.974 269.532 601.318 262.718 598.631C255.904 595.944 248.444 595.347 241.289 596.918C234.135 598.489 227.61 602.155 222.548 607.45C217.486 612.745 214.117 619.427 212.869 626.645C211.621 633.863 212.552 641.289 215.542 647.975C218.533 654.662 223.448 660.306 229.66 664.187C235.872 668.069 243.099 670.012 250.42 669.768C260.054 669.447 269.179 665.366 275.84 658.399C282.501 651.432 286.168 642.133 286.055 632.494Z" fill="black"/>
<path d="M238.132 567.777C239.302 574.037 238.116 580.508 234.802 585.946C231.488 591.384 226.281 595.405 220.181 597.235C214.082 599.065 207.521 598.574 201.761 595.858C196.001 593.143 191.449 588.393 188.98 582.523C187.97 579.269 187.614 575.847 187.933 572.455C188.253 569.063 189.24 565.768 190.84 562.759C192.439 559.751 194.618 557.089 197.252 554.928C199.885 552.766 202.921 551.147 206.183 550.164C212.755 548.266 219.813 549.054 225.804 552.357C231.794 555.66 236.229 561.206 238.132 567.777Z" fill="black"/>
<path d="M260.247 567.768C258.332 574.286 259.064 581.296 262.285 587.277C265.505 593.258 270.954 597.728 277.45 599.717C280.704 600.727 284.126 601.083 287.518 600.764C290.91 600.444 294.205 599.457 297.213 597.857C300.222 596.258 302.884 594.078 305.045 591.445C307.207 588.812 308.826 585.776 309.808 582.514C311.736 575.942 311.016 568.877 307.801 562.829C304.586 556.782 299.132 552.233 292.605 550.155C289.325 549.153 285.877 548.815 282.464 549.161C279.051 549.507 275.742 550.529 272.729 552.169C269.716 553.809 267.06 556.033 264.917 558.712C262.774 561.39 261.186 564.469 260.247 567.768Z" fill="black"/>
<path d="M249.592 564.907C254.73 550.609 264.735 538.573 277.854 530.91H220.92C234.06 538.658 244.172 550.648 249.592 564.907Z" fill="black"/>
<path d="M117.294 537.056C124.618 536.97 131.751 534.705 137.783 530.548C143.814 526.391 148.471 520.532 151.158 513.718C153.845 506.904 154.441 499.444 152.87 492.289C151.3 485.135 147.633 478.61 142.339 473.548C137.044 468.486 130.362 465.117 123.144 463.869C115.926 462.621 108.5 463.552 101.813 466.542C95.1266 469.533 89.4825 474.448 85.601 480.66C81.7196 486.872 79.7767 494.1 80.0204 501.42C80.1268 506.208 81.1754 510.928 83.1063 515.31C85.0373 519.692 87.8129 523.651 91.2743 526.96C94.7357 530.27 98.8152 532.865 103.28 534.597C107.744 536.329 112.506 537.164 117.294 537.056Z" fill="black"/>
<path d="M182.009 489.536C175.491 491.451 168.481 490.718 162.5 487.498C156.519 484.277 152.049 478.828 150.06 472.332C148.132 465.76 148.853 458.695 152.068 452.648C155.283 446.6 160.737 442.051 167.263 439.974C170.518 439.006 173.931 438.688 177.308 439.039C180.685 439.39 183.96 440.402 186.945 442.019C189.931 443.635 192.569 445.824 194.709 448.46C196.849 451.096 198.449 454.128 199.417 457.382C200.385 460.636 200.703 464.049 200.352 467.426C200.001 470.803 198.988 474.078 197.372 477.064C195.756 480.05 193.567 482.688 190.931 484.828C188.295 486.968 185.263 488.567 182.009 489.536Z" fill="black"/>
<path d="M182.009 511.246C175.491 509.331 168.481 510.063 162.5 513.284C156.519 516.504 152.049 521.954 150.06 528.449C148.132 535.021 148.853 542.087 152.068 548.134C155.283 554.181 160.737 558.73 167.263 560.807C170.518 561.776 173.931 562.093 177.308 561.743C180.685 561.392 183.96 560.379 186.945 558.763C189.931 557.146 192.569 554.958 194.709 552.322C196.849 549.685 198.449 546.654 199.417 543.399C200.385 540.145 200.703 536.732 200.352 533.355C200.001 529.978 198.988 526.703 197.372 523.717C195.756 520.732 193.567 518.094 190.931 515.954C188.295 513.814 185.263 512.214 182.009 511.246Z" fill="black"/>
<path d="M185.29 500.192C199.406 505.853 211.325 515.906 219.287 528.864V471.93C211.419 484.875 199.454 494.821 185.29 500.192Z" fill="black"/>
<path d="M212.732 368.294C212.818 375.618 215.083 382.751 219.24 388.783C223.397 394.814 229.256 399.47 236.07 402.158C242.884 404.845 250.345 405.441 257.499 403.87C264.654 402.3 271.178 398.633 276.24 393.339C281.302 388.044 284.671 381.361 285.919 374.144C287.167 366.926 286.236 359.5 283.245 352.813C280.255 346.127 275.34 340.482 269.128 336.601C262.916 332.72 255.689 330.777 248.368 331.02C238.734 331.341 229.609 335.422 222.948 342.389C216.287 349.357 212.62 358.656 212.732 368.294Z" fill="black"/>
<path d="M260.247 433.019C258.332 426.501 259.064 419.491 262.285 413.51C265.505 407.529 270.954 403.059 277.45 401.07C280.704 400.06 284.126 399.704 287.518 400.024C290.91 400.343 294.205 401.331 297.213 402.93C300.222 404.529 302.884 406.709 305.045 409.342C307.207 411.976 308.826 415.011 309.808 418.273C311.764 424.846 311.028 431.926 307.764 437.955C304.499 443.985 298.973 448.471 292.4 450.427C285.828 452.382 278.748 451.647 272.718 448.382C266.688 445.118 262.202 439.591 260.247 433.019Z" fill="black"/>
<path d="M238.13 433.015C239.3 426.755 238.114 420.284 234.801 414.846C231.487 409.408 226.279 405.387 220.18 403.557C214.08 401.727 207.519 402.217 201.76 404.933C196 407.649 191.447 412.399 188.978 418.269C187.575 421.606 186.889 425.202 186.966 428.821C187.043 432.441 187.88 436.004 189.424 439.279C190.968 442.554 193.184 445.467 195.928 447.829C198.672 450.191 201.882 451.95 205.35 452.99C208.818 454.03 212.466 454.329 216.057 453.868C219.648 453.406 223.101 452.193 226.193 450.309C229.285 448.425 231.945 445.912 234.002 442.932C236.059 439.953 237.465 436.573 238.13 433.015Z" fill="black"/>
<path d="M249.592 435.879C244.172 450.138 234.06 462.128 220.92 469.876H279.083C265.502 462.437 255.038 450.374 249.592 435.879Z" fill="black"/>
</svg>
