<svg width="252" height="50" viewBox="0 0 252 50" fill="none" xmlns="http://www.w3.org/2000/svg">
<rect width="83" height="47" fill="black"/>
<rect x="0.5" y="0.5" width="251" height="46" stroke="black"/>
<path d="M122.936 16.96C122.061 15.744 121.016 14.3467 119.8 12.768L118.52 11.04L120.248 9.536C120.76 10.112 121.464 10.976 122.36 12.128C123.256 13.2587 124.035 14.272 124.696 15.168L122.936 16.96ZM124.28 31.168C125.155 29.8667 125.837 28.6187 126.328 27.424C126.819 26.208 127.171 24.8533 127.384 23.36C127.597 21.8453 127.704 20 127.704 17.824V11.136C130.413 11.0507 133.155 10.8693 135.928 10.592C138.701 10.3147 141.24 9.96267 143.544 9.536L143.992 11.968C139.597 12.7573 134.947 13.2693 130.04 13.504V17.12H143.192V19.424C142.275 22.112 140.771 24.6187 138.68 26.944C140.941 28.9707 142.765 30.624 144.152 31.904L142.616 33.824C140.248 31.584 138.392 29.8347 137.048 28.576C135.064 30.4747 132.568 32.2133 129.56 33.792L128.216 31.648C130.925 30.2613 133.272 28.6827 135.256 26.912L130.424 22.432L131.832 20.704L135.96 24.48L136.888 25.312C138.552 23.52 139.8 21.5573 140.632 19.424H130.04C129.997 22.3253 129.677 24.768 129.08 26.752C128.504 28.7147 127.544 30.7093 126.2 32.736L124.28 31.168ZM145.176 34.656L144.824 37.088H131.128C129.613 37.088 128.344 36.9707 127.32 36.736C126.317 36.5227 125.411 36.1387 124.6 35.584C123.789 35.008 122.957 34.1867 122.104 33.12L117.912 37.696L116.728 35.264L120.76 30.912V22.112H116.984V19.776H123.128V30.752C123.875 31.8187 124.632 32.6293 125.4 33.184C126.168 33.7387 127.021 34.1227 127.96 34.336C128.92 34.5493 130.125 34.656 131.576 34.656H145.176ZM150.552 38.144V10.528H175.256V38.144H172.824V35.904H152.984V38.144H150.552ZM152.984 13.024V33.504H172.824V13.024H152.984ZM157.112 29.024V17.408H168.696V29.024H157.112ZM159.224 26.784H166.552V19.616H159.224V26.784Z" fill="#09141A"/>
<path d="M61 23H24M24 23L41.76 5M24 23L41.76 41" stroke="white" stroke-width="3" stroke-linecap="round" stroke-linejoin="round"/>
</svg>
